<svg width="24" height="24" viewBox="0 0 24 24" fill="none" xmlns="http://www.w3.org/2000/svg">
<path d="M24 12C24 18.6274 18.6274 24 12 24C5.37258 24 0 18.6274 0 12C0 5.37258 5.37258 0 12 0C18.6274 0 24 5.37258 24 12Z" fill="white"/>
<path d="M14.7669 9.42462V13.5494C14.7669 13.6269 14.7361 13.7011 14.6814 13.7559C14.6266 13.8107 14.5523 13.8414 14.4749 13.8414C14.3974 13.8414 14.3231 13.8107 14.2684 13.7559C14.2136 13.7011 14.1828 13.6269 14.1828 13.5494L14.1833 10.1287L9.73137 14.5806C9.67667 14.6353 9.60248 14.666 9.52513 14.666C9.44777 14.666 9.37358 14.6353 9.31889 14.5806C9.26419 14.5259 9.23346 14.4517 9.23346 14.3744C9.23346 14.297 9.26419 14.2228 9.31889 14.1681L13.7708 9.71624L10.3501 9.71666C10.2726 9.71666 10.1984 9.68589 10.1436 9.63112C10.0888 9.57635 10.058 9.50207 10.058 9.42462C10.058 9.34717 10.0888 9.27289 10.1436 9.21812C10.1984 9.16335 10.2726 9.13259 10.3501 9.13259H14.4749C14.5132 9.13254 14.5512 9.14006 14.5867 9.15472C14.6221 9.16938 14.6544 9.19089 14.6815 9.21801C14.7086 9.24514 14.7301 9.27735 14.7448 9.31281C14.7594 9.34826 14.767 9.38626 14.7669 9.42462Z" fill="#32B1D1"/>
</svg>
