<svg width="24" height="24" viewBox="0 0 24 24" fill="none" xmlns="http://www.w3.org/2000/svg">
<circle cx="12" cy="12" r="12" fill="#32B1D1"/>
<path d="M14.7669 9.42472L14.7669 13.5495C14.7669 13.627 14.7362 13.7012 14.6814 13.756C14.6266 13.8108 14.5523 13.8415 14.4749 13.8415C14.3974 13.8415 14.3232 13.8108 14.2684 13.756C14.2136 13.7012 14.1828 13.627 14.1828 13.5495L14.1833 10.1288L9.73138 14.5807C9.67668 14.6354 9.60249 14.6661 9.52514 14.6661C9.44778 14.6661 9.3736 14.6354 9.3189 14.5807C9.2642 14.526 9.23347 14.4518 9.23347 14.3745C9.23347 14.2971 9.2642 14.2229 9.3189 14.1682L13.7708 9.71634L10.3501 9.71676C10.2726 9.71676 10.1984 9.68599 10.1436 9.63122C10.0888 9.57645 10.0581 9.50217 10.0581 9.42472C10.0581 9.34727 10.0888 9.27299 10.1436 9.21822C10.1984 9.16345 10.2726 9.13269 10.3501 9.13269L14.4749 9.13269C14.5132 9.13264 14.5512 9.14016 14.5867 9.15482C14.6222 9.16948 14.6544 9.19099 14.6815 9.21811C14.7086 9.24524 14.7301 9.27745 14.7448 9.31291C14.7594 9.34836 14.767 9.38636 14.7669 9.42472Z" fill="white"/>
</svg>
